<svg width="24" height="24" viewBox="0 0 24 24" fill="none" xmlns="http://www.w3.org/2000/svg">
<path fill-rule="evenodd" clip-rule="evenodd" d="M16.8392 23.6827H7.16094L0.317383 16.8392V7.16094L7.16094 0.317383H16.8392L23.6827 7.16094V16.8392L16.8392 23.6827ZM15.4277 20.2753L20.2753 15.4277V8.57235L15.4277 3.72483H8.57235L3.72483 8.57235V15.4277L8.57235 20.2753H15.4277ZM8.54052 12L14.2564 17.746L11.9705 20.0319L6.25466 14.316L6.25412 14.3166L3.96822 12L6.79732 9.20161H11.3691L8.54052 12ZM17.2028 14.7985H12.631L15.4596 12L9.74374 6.25412L12.0296 3.96822L17.7454 9.68406L17.746 9.68352L20.0319 12L17.2028 14.7985Z" fill="#006D08"/>
</svg>
