<svg width="24" height="24" viewBox="0 0 24 24" fill="none" xmlns="http://www.w3.org/2000/svg">
<path fill-rule="evenodd" clip-rule="evenodd" d="M22.0636 23.5883H12.3666V14.1047C12.4964 12.5763 12.7263 11.1686 13.2903 10.1638C13.6254 10.352 14.2237 11.1837 14.4022 12.7932C14.8396 12.0032 15.3723 11.1177 16.3389 10.556C16.404 12.2993 16.3002 12.9626 15.8117 14.1762C15.1259 15.8799 13.2385 16.2765 13.2385 16.2765V22.7163H21.1917C21.1917 17.4751 21.2906 12.2329 21.1909 6.99262C21.1892 6.94004 21.1863 6.88766 21.1819 6.83522C21.1578 6.58217 21.098 6.33438 20.9989 6.10006C20.755 5.52345 20.2889 5.05346 19.7165 4.80282L19.7158 4.80248C19.8885 4.53784 20.0651 4.29966 20.2398 4.0862C20.5526 4.24524 20.84 4.45364 21.0883 4.70201C21.4393 5.05293 21.7104 5.48179 21.8754 5.94999C22.0007 6.30589 22.0612 6.67955 22.0636 7.0565V23.5883ZM11.6335 23.5883H1.93652V7.0565C1.93889 6.67955 1.99944 6.30589 2.12478 5.94999C2.28972 5.48179 2.56083 5.05293 2.9118 4.70201C3.16017 4.45364 3.44756 4.24524 3.76034 4.0862C3.93503 4.29966 4.1116 4.53784 4.28436 4.80248L4.28359 4.80282C3.71123 5.05346 3.24515 5.52345 3.00127 6.10006C2.90215 6.33438 2.84232 6.58217 2.81823 6.83522C2.81388 6.88766 2.81094 6.94004 2.80925 6.99262C2.70954 12.2329 2.80843 17.4751 2.80843 22.7163H10.7616V16.2765C10.7616 16.2765 8.87424 15.8799 8.18842 14.1762C7.69989 12.9626 7.59613 12.2993 7.66126 10.556C8.6278 11.1177 9.16051 12.0032 9.59796 12.7932C9.77642 11.1837 10.3747 10.352 10.7099 10.1638C11.2738 11.1686 11.5037 12.5763 11.6335 14.1047V23.5883ZM15.6646 1.00537C15.6566 1.0847 15.6457 1.16379 15.6319 1.24254C15.6124 1.35287 15.5876 1.46213 15.5577 1.57005C15.3117 2.45827 14.7401 3.21386 14.1198 3.8779C14.0047 4.00117 13.887 4.12207 13.7682 4.24182C13.6563 4.35456 13.5434 4.46624 13.4305 4.57797C13.6149 5.11903 13.8277 5.65029 14.0665 6.16963C14.1638 6.38131 14.2657 6.59071 14.3713 6.79824C14.6709 6.33481 15.0021 5.89176 15.3605 5.47295C15.6336 5.1538 15.9231 4.84802 16.2282 4.5587C15.997 4.11985 15.8645 3.63378 15.7801 3.14626C15.6581 2.44065 15.6344 1.72069 15.6646 1.00537ZM8.33554 1.00537C8.34355 1.0847 8.35442 1.16379 8.36828 1.24254C8.38769 1.35287 8.41255 1.46213 8.44244 1.57005C8.6884 2.45827 9.26007 3.21386 9.88032 3.8779C9.99548 4.00117 10.1131 4.12207 10.2319 4.24182C10.3438 4.35456 10.4568 4.46624 10.5696 4.57797C10.3852 5.11903 10.1724 5.65029 9.93368 6.16963C9.83634 6.38131 9.73446 6.59071 9.62881 6.79824C9.32922 6.33481 8.99799 5.89176 8.63963 5.47295C8.36649 5.1538 8.07703 4.84802 7.77197 4.5587C8.00311 4.11985 8.13565 3.63378 8.22 3.14626C8.34201 2.44065 8.36572 1.72069 8.33554 1.00537Z" fill="#B27D53"/>
<path fill-rule="evenodd" clip-rule="evenodd" d="M21.1649 2.61152C19.6332 3.71537 17.8415 6.12772 17.6304 8.66617C17.4585 10.7338 17.1052 11.6373 16.8413 12.0241C16.9582 11.327 16.9575 10.379 16.8266 9.61475C16.5339 9.7443 16.048 10.0428 15.6032 10.4851C15.5479 10.3042 15.094 9.37507 13.5987 9.78713C13.6707 9.55561 13.75 9.3266 13.8382 9.10058C14.0494 8.55995 14.305 8.0368 14.5991 7.536C14.601 7.53277 14.6029 7.52953 14.6047 7.52625C14.9213 6.98827 15.2822 6.47623 15.6798 5.9961C16.0179 5.58771 16.3837 5.2013 16.7753 4.84328C16.7871 4.8342 16.7981 4.82411 16.8085 4.8131C17.0938 4.5544 17.3927 4.31076 17.7044 4.0847C18.5772 3.45175 19.5628 2.94699 20.6189 2.70818C20.7995 2.66738 20.9816 2.63561 21.1649 2.61152ZM2.83496 2.61152C4.36671 3.71537 6.15837 6.12772 6.36951 8.66617C6.54145 10.7338 6.89474 11.6373 7.15856 12.0241C7.04166 11.327 7.04239 10.379 7.17328 9.61475C7.46603 9.7443 7.95186 10.0428 8.39669 10.4851C8.45198 10.3042 8.90589 9.37507 10.4012 9.78713C10.3292 9.55561 10.2499 9.3266 10.1616 9.10058C9.95051 8.55995 9.69489 8.0368 9.40085 7.536C9.39887 7.53277 9.39698 7.52953 9.39515 7.52625C9.0786 6.98827 8.71773 6.47623 8.32012 5.9961C7.98199 5.58771 7.61619 5.2013 7.22456 4.84328C7.21283 4.8342 7.20177 4.82411 7.19144 4.8131C6.90613 4.5544 6.60721 4.31076 6.29549 4.0847C5.42267 3.45175 4.43711 2.94699 3.381 2.70818C3.20037 2.66738 3.01829 2.63561 2.83496 2.61152ZM12.9259 10.0138C12.7582 9.89122 12.4929 9.67096 11.9938 9.6725C11.4947 9.67409 11.2358 9.89552 11.074 10.0138C10.9494 9.22969 10.4344 8.28908 9.98184 7.37966C10.185 6.99556 10.7925 5.66004 10.9546 5.15442C11.385 3.8118 11.7606 2.166 11.9999 1.2786C12.23 2.16847 12.6058 3.87099 13.0453 5.15442C13.2174 5.65676 13.8149 6.99556 14.0181 7.37966C13.5655 8.28908 13.0505 9.22969 12.9259 10.0138ZM16.312 1.97041C16.4278 1.05099 17.4665 0.983154 18.107 1.19763C19.0274 1.50587 19.3448 2.36561 18.6056 2.84304C18.2488 3.07345 17.8655 3.26141 17.5186 3.50351C17.2272 3.70688 16.9462 3.92483 16.6759 4.15553L16.6715 4.14602C16.3602 3.14529 16.2473 2.48381 16.312 1.97041ZM7.68789 1.97041C7.57206 1.05099 6.53338 0.983154 5.8929 1.19763C4.97252 1.50587 4.65506 2.36561 5.39433 2.84304C5.75109 3.07345 6.13437 3.26141 6.48129 3.50351C6.77268 3.70688 7.05373 3.92483 7.32403 4.15553L7.32837 4.14602C7.63966 3.14529 7.75259 2.48381 7.68789 1.97041ZM12.704 1.54136C12.5973 0.815079 13.3574 0.341273 13.9012 0.420796C14.2585 0.473039 15.2283 0.720685 14.9557 1.55251C14.8494 1.87683 14.6913 2.18339 14.5057 2.46942C14.1808 2.97012 13.7733 3.40882 13.3555 3.83232C13.3144 3.87345 13.2733 3.9145 13.2321 3.95549C13.0705 3.41071 12.9372 2.85762 12.8311 2.29936C12.7832 2.04756 12.7412 1.79485 12.704 1.54136ZM11.2959 1.54136C11.4026 0.815079 10.6425 0.341273 10.0987 0.420796C9.74139 0.473039 8.77157 0.720685 9.04418 1.55251C9.15045 1.87683 9.30858 2.18339 9.49418 2.46942C9.81913 2.97012 10.2266 3.40882 10.6444 3.83232C10.6855 3.87345 10.7266 3.9145 10.7678 3.95549C10.9294 3.41071 11.0627 2.85762 11.1688 2.29936C11.2167 2.04756 11.2587 1.79485 11.2959 1.54136Z" fill="black"/>
</svg>
